<?xml version="1.0" encoding="utf-8"?>
<!-- Generator: Adobe Illustrator 22.0.1, SVG Export Plug-In . SVG Version: 6.00 Build 0)  -->
<svg version="1.1" id="Layer_1" xmlns="http://www.w3.org/2000/svg" xmlns:xlink="http://www.w3.org/1999/xlink" x="0px" y="0px"
	 viewBox="0 0 356.9 302.2" style="enable-background:new 0 0 356.9 302.2;" xml:space="preserve">
<style type="text/css">
	.st0{fill:#A71F23;}
	.st1{fill:#FFFFFF;}
</style>
<g>
	<g>
		<path id="XMLID_327_" class="st0" d="M178.5,5.1c39,0,75.6,15.2,103.2,42.7c27.6,27.6,42.7,64.2,42.7,103.2s-15.2,75.6-42.7,103.2
			c-27.5,27.6-64.2,42.8-103.2,42.8s-75.6-15.2-103.2-42.8C47.7,226.6,32.6,190,32.6,151S47.8,75.4,75.3,47.8
			C102.9,20.3,139.5,5.1,178.5,5.1L178.5,5.1z M71.7,257.9c13.9,13.9,30,24.8,48,32.4c18.6,7.9,38.4,11.9,58.8,11.9
			s40.2-4,58.8-11.9c18-7.6,34.2-18.5,48-32.4c13.9-13.9,24.8-30,32.4-48c7.9-18.6,11.9-38.4,11.9-58.8s-4-40.2-11.9-58.8
			c-7.6-18-18.5-34.2-32.4-48c-13.9-13.9-30-24.8-48-32.4C218.7,4,198.9,0,178.5,0s-40.2,4-58.8,11.9c-18,7.6-34.2,18.5-48,32.4
			c-13.9,13.9-24.8,30-32.4,48c-7.9,18.6-11.9,38.4-11.9,58.8s4,40.2,11.9,58.8C46.9,227.9,57.8,244.1,71.7,257.9L71.7,257.9z"/>
		<path id="XMLID_330_" class="st0" d="M178.5,27.7c33,0,64,12.8,87.3,36.1s36.2,54.3,36.2,87.3s-12.8,64-36.2,87.3
			c-23.3,23.3-54.3,36.1-87.3,36.1s-64-12.8-87.3-36.1c-23.3-23.3-36.1-54.3-36.1-87.3s12.8-64,36.1-87.3
			C114.6,40.5,145.6,27.7,178.5,27.7L178.5,27.7z M49.9,151.1c0,34.4,13.4,66.7,37.7,90.9c24.3,24.3,56.6,37.7,90.9,37.7
			c34.4,0,66.7-13.4,90.9-37.7c24.3-24.3,37.7-56.6,37.7-90.9c0-34.4-13.4-66.7-37.7-90.9c-24.3-24.3-56.6-37.7-90.9-37.7
			c-34.4,0-66.7,13.4-90.9,37.7S49.9,116.7,49.9,151.1L49.9,151.1z"/>
		<path id="XMLID_332_" class="st0" d="M253.1,263.6l1.7,2.5c1.4-1,2.9-2,4.3-3l-1.8-2.5C256,261.7,254.6,262.7,253.1,263.6
			L253.1,263.6z"/>
		<path id="XMLID_333_" class="st0" d="M165.8,16.7l-0.3-3c-1.7,0.2-3.5,0.4-5.2,0.6l0.4,3C162.4,17,164.1,16.8,165.8,16.7
			L165.8,16.7z"/>
		<path id="XMLID_334_" class="st0" d="M303.9,201.2l2.8,1.1c0.6-1.6,1.3-3.3,1.8-4.9l-2.9-1C305.2,198,304.6,199.6,303.9,201.2
			L303.9,201.2z"/>
		<path id="XMLID_335_" class="st0" d="M196.8,14.2c-1.7-0.2-3.5-0.4-5.2-0.6l-0.3,3c1.7,0.2,3.4,0.4,5.1,0.6L196.8,14.2z"/>
		<path id="XMLID_336_" class="st0" d="M186.4,13.3c-1.7-0.1-3.5-0.2-5.2-0.2l-0.1,3c1.7,0,3.4,0.1,5.1,0.2L186.4,13.3z"/>
		<path id="XMLID_337_" class="st0" d="M207.1,16c-1.7-0.4-3.4-0.7-5.1-1l-0.5,3c1.7,0.3,3.4,0.6,5,1L207.1,16z"/>
		<path id="XMLID_338_" class="st0" d="M299.8,210.5l2.7,1.3c0.8-1.6,1.5-3.1,2.2-4.7l-2.8-1.2C301.3,207.5,300.5,209,299.8,210.5
			L299.8,210.5z"/>
		<path id="XMLID_339_" class="st0" d="M276.6,243.9l2.2,2.1c1.2-1.3,2.4-2.6,3.5-3.9l-2.3-2C278.9,241.4,277.7,242.7,276.6,243.9
			L276.6,243.9z"/>
		<path id="XMLID_340_" class="st0" d="M155.7,18l-0.5-3c-1.7,0.3-3.4,0.6-5.1,1l0.6,3C152.4,18.6,154,18.3,155.7,18L155.7,18z"/>
		<path id="XMLID_341_" class="st0" d="M283.3,236.2l2.4,1.9c1.1-1.3,2.2-2.7,3.2-4.1l-2.4-1.8C285.4,233.6,284.4,234.9,283.3,236.2
			L283.3,236.2z"/>
		<path id="XMLID_342_" class="st0" d="M261.4,257.6l1.9,2.4c1.4-1.1,2.7-2.2,4.1-3.3l-2-2.3C264.1,255.5,262.8,256.6,261.4,257.6
			L261.4,257.6z"/>
		<path id="XMLID_343_" class="st0" d="M269.3,251.1l2,2.2c1.3-1.2,2.6-2.4,3.8-3.6l-2.1-2.2C271.8,248.7,270.5,249.9,269.3,251.1
			L269.3,251.1z"/>
		<path id="XMLID_344_" class="st0" d="M294.9,219.5l2.6,1.5c0.9-1.5,1.7-3,2.6-4.5l-2.7-1.4C296.6,216.5,295.8,218,294.9,219.5
			L294.9,219.5z"/>
		<path id="XMLID_345_" class="st0" d="M135.9,22.9l-1-2.9c-1.7,0.5-3.3,1.1-4.9,1.8l1.1,2.8C132.7,24.1,134.3,23.5,135.9,22.9
			L135.9,22.9z"/>
		<path id="XMLID_346_" class="st0" d="M289.4,228.1l2.5,1.7c1-1.4,2-2.9,2.9-4.3l-2.5-1.6C291.4,225.3,290.4,226.7,289.4,228.1
			L289.4,228.1z"/>
		<path id="XMLID_347_" class="st0" d="M145.7,20.1l-0.7-2.9c-1.7,0.4-3.4,0.9-5,1.4l0.9,2.9C142.4,20.9,144.1,20.5,145.7,20.1
			L145.7,20.1z"/>
		<path id="XMLID_348_" class="st0" d="M176,16.1l-0.1-3c-1.7,0-3.5,0.1-5.2,0.2l0.2,3C172.6,16.2,174.3,16.1,176,16.1L176,16.1z"/>
		<path id="XMLID_349_" class="st0" d="M310.1,120.7l3-0.7c-0.4-1.7-0.8-3.4-1.3-5.1l-2.9,0.8C309.3,117.4,309.7,119,310.1,120.7
			L310.1,120.7z"/>
		<path id="XMLID_350_" class="st0" d="M313.2,140.9l3-0.2c-0.1-1.7-0.3-3.5-0.5-5.2l-3,0.3C312.9,137.5,313,139.2,313.2,140.9
			L313.2,140.9z"/>
		<path id="XMLID_351_" class="st0" d="M312,130.7l3-0.5c-0.3-1.7-0.6-3.5-0.9-5.1l-3,0.6C311.5,127.3,311.8,129,312,130.7
			L312,130.7z"/>
		<path id="XMLID_352_" class="st0" d="M307.4,110.8l2.9-0.9c-0.5-1.7-1.1-3.3-1.6-5l-2.9,1C306.4,107.6,306.9,109.2,307.4,110.8
			L307.4,110.8z"/>
		<path id="XMLID_353_" class="st0" d="M304,101.2l2.8-1.1c-0.6-1.6-1.3-3.2-2-4.8l-2.8,1.2C302.7,98,303.4,99.6,304,101.2
			L304,101.2z"/>
		<path id="XMLID_354_" class="st0" d="M299.9,91.8l2.7-1.3c-0.8-1.6-1.6-3.1-2.4-4.6l-2.7,1.4C298.3,88.8,299.1,90.3,299.9,91.8
			L299.9,91.8z"/>
		<path id="XMLID_355_" class="st0" d="M310,181.7l3,0.7c0.4-1.7,0.8-3.4,1.1-5.1l-3-0.6C310.8,178.4,310.4,180.1,310,181.7
			L310,181.7z"/>
		<path id="XMLID_356_" class="st0" d="M312,171.7l3,0.5c0.3-1.7,0.5-3.5,0.7-5.2l-3-0.4C312.5,168.3,312.2,170,312,171.7L312,171.7
			z"/>
		<path id="XMLID_357_" class="st0" d="M313.1,161.6l3,0.2c0.1-1.7,0.2-3.5,0.3-5.2l-3-0.1C313.4,158.2,313.3,159.9,313.1,161.6
			L313.1,161.6z"/>
		<path id="XMLID_358_" class="st0" d="M313.5,151.1v0.3h3v-0.3c0-1.7,0-3.5-0.1-5.2l-3,0.1C313.5,147.7,313.5,149.4,313.5,151.1
			L313.5,151.1z"/>
		<path id="XMLID_359_" class="st0" d="M254.9,36.1c-1.4-1-2.9-1.9-4.4-2.8l-1.6,2.6c1.4,0.9,2.9,1.8,4.3,2.8L254.9,36.1z"/>
		<path id="XMLID_360_" class="st0" d="M217.3,18.6c-1.7-0.5-3.4-0.9-5-1.4l-0.7,2.9c1.6,0.4,3.3,0.9,4.9,1.3L217.3,18.6z"/>
		<path id="XMLID_361_" class="st0" d="M246,30.6c-1.5-0.8-3.1-1.7-4.6-2.5l-1.4,2.7c1.5,0.8,3,1.6,4.5,2.4L246,30.6z"/>
		<path id="XMLID_362_" class="st0" d="M263.4,42.2c-1.4-1.1-2.8-2.1-4.2-3.1l-1.8,2.5c1.4,1,2.8,2,4.1,3.1L263.4,42.2z"/>
		<path id="XMLID_363_" class="st0" d="M227.2,21.8c-1.6-0.6-3.3-1.2-4.9-1.7l-1,2.9c1.6,0.5,3.2,1.1,4.8,1.7L227.2,21.8z"/>
		<path id="XMLID_364_" class="st0" d="M297.6,81.3c-0.9-1.5-1.8-3-2.7-4.5l-2.6,1.6c0.9,1.4,1.8,2.9,2.7,4.4L297.6,81.3z"/>
		<path id="XMLID_365_" class="st0" d="M236.8,25.9c-1.6-0.7-3.2-1.4-4.8-2.1l-1.2,2.8c1.6,0.7,3.1,1.4,4.7,2.1L236.8,25.9z"/>
		<path id="XMLID_366_" class="st0" d="M271.4,48.9c-1.3-1.2-2.6-2.3-3.9-3.4l-2,2.3c1.3,1.1,2.6,2.2,3.8,3.4L271.4,48.9z"/>
		<path id="XMLID_367_" class="st0" d="M292,72.5c-1-1.4-2-2.9-3.1-4.2l-2.4,1.8c1,1.4,2,2.8,3,4.1L292,72.5z"/>
		<path id="XMLID_368_" class="st0" d="M285.7,64.1c-1.1-1.3-2.2-2.7-3.4-4l-2.3,2c1.1,1.3,2.2,2.6,3.3,3.9L285.7,64.1z"/>
		<path id="XMLID_369_" class="st0" d="M278.8,56.2c-1.2-1.3-2.4-2.5-3.7-3.7l-2.1,2.2c1.2,1.2,2.4,2.4,3.6,3.6L278.8,56.2z"/>
		<path id="XMLID_370_" class="st0" d="M144.7,285c1.7,0.4,3.4,0.8,5.1,1.2l0.6-3c-1.7-0.4-3.3-0.7-5-1.2L144.7,285z"/>
		<path id="XMLID_371_" class="st0" d="M51.3,105.8l-2.9-1c-0.6,1.6-1.1,3.3-1.7,5l2.9,0.9C50.2,109.1,50.7,107.5,51.3,105.8
			L51.3,105.8z"/>
		<path id="XMLID_372_" class="st0" d="M48.2,115.6l-2.9-0.8c-0.5,1.7-0.9,3.4-1.3,5.1l3,0.7C47.4,118.9,47.8,117.2,48.2,115.6
			L48.2,115.6z"/>
		<path id="XMLID_373_" class="st0" d="M134.7,282c1.6,0.5,3.3,1.1,5,1.6l0.9-2.9c-1.6-0.5-3.3-1-4.9-1.5L134.7,282z"/>
		<path id="XMLID_374_" class="st0" d="M45.9,125.6l-3-0.6c-0.3,1.7-0.6,3.4-0.9,5.1l3,0.5C45.3,128.9,45.6,127.2,45.9,125.6
			L45.9,125.6z"/>
		<path id="XMLID_375_" class="st0" d="M124.9,278.3c1.6,0.7,3.2,1.3,4.8,1.9l1.1-2.8c-1.6-0.6-3.2-1.2-4.7-1.9L124.9,278.3z"/>
		<path id="XMLID_376_" class="st0" d="M43.5,151c0-1.7,0-3.4,0.1-5.1l-3-0.1c-0.1,1.7-0.1,3.5-0.1,5.2H43.5z"/>
		<path id="XMLID_377_" class="st0" d="M48.2,186.3l-2.9,0.8c0.5,1.7,0.9,3.4,1.5,5l2.9-0.9C49.1,189.6,48.6,187.9,48.2,186.3
			L48.2,186.3z"/>
		<path id="XMLID_378_" class="st0" d="M62.1,225.2c0.9,1.5,1.9,2.9,2.9,4.4l2.5-1.7c-1-1.4-1.9-2.8-2.8-4.3L62.1,225.2z"/>
		<path id="XMLID_379_" class="st0" d="M55.1,96.4l-2.8-1.2c-0.7,1.6-1.4,3.2-2,4.8l2.8,1.1C53.7,99.5,54.4,97.9,55.1,96.4
			L55.1,96.4z"/>
		<path id="XMLID_380_" class="st0" d="M244.4,269l1.5,2.6c1.5-0.9,3-1.7,4.5-2.6l-1.6-2.6C247.4,267.3,245.9,268.1,244.4,269
			L244.4,269z"/>
		<path id="XMLID_381_" class="st0" d="M59.5,87.2l-2.7-1.4c-0.8,1.5-1.6,3.1-2.4,4.6l2.7,1.3C58,90.2,58.7,88.7,59.5,87.2
			L59.5,87.2z"/>
		<path id="XMLID_382_" class="st0" d="M154.9,287.1c1.7,0.3,3.4,0.6,5.2,0.8l0.4-3c-1.7-0.2-3.4-0.5-5-0.8L154.9,287.1z"/>
		<path id="XMLID_383_" class="st0" d="M106.4,268.8c1.5,0.9,3,1.8,4.5,2.6l1.5-2.6c-1.5-0.8-2.9-1.7-4.4-2.6L106.4,268.8z"/>
		<path id="XMLID_384_" class="st0" d="M89.5,256.6c1.3,1.1,2.7,2.2,4,3.3l1.9-2.4c-1.3-1-2.7-2.1-4-3.2L89.5,256.6z"/>
		<path id="XMLID_385_" class="st0" d="M51.2,196.1l-2.9,1c0.6,1.6,1.2,3.3,1.8,4.9l2.8-1.1C52.4,199.3,51.8,197.7,51.2,196.1
			L51.2,196.1z"/>
		<path id="XMLID_386_" class="st0" d="M81.8,249.5c1.2,1.2,2.5,2.4,3.8,3.6l2-2.2c-1.3-1.1-2.5-2.3-3.7-3.5L81.8,249.5z"/>
		<path id="XMLID_387_" class="st0" d="M45.9,176.3l-3,0.6c0.3,1.7,0.7,3.4,1.1,5.1l3-0.7C46.5,179.7,46.2,178,45.9,176.3
			L45.9,176.3z"/>
		<path id="XMLID_388_" class="st0" d="M44.4,166.2l-3,0.3c0.2,1.7,0.4,3.5,0.7,5.2l3-0.5C44.8,169.6,44.5,167.9,44.4,166.2
			L44.4,166.2z"/>
		<path id="XMLID_389_" class="st0" d="M115.5,273.9c1.5,0.8,3.1,1.6,4.7,2.3l1.3-2.8c-1.5-0.7-3.1-1.5-4.6-2.2L115.5,273.9z"/>
		<path id="XMLID_390_" class="st0" d="M43.6,156.1l-3,0.1c0.1,1.7,0.2,3.5,0.3,5.2l3-0.2C43.8,159.5,43.7,157.7,43.6,156.1
			L43.6,156.1z"/>
		<path id="XMLID_391_" class="st0" d="M68,233.8c1,1.4,2.1,2.8,3.2,4.1l2.4-1.9c-1.1-1.3-2.1-2.7-3.1-4L68,233.8z"/>
		<path id="XMLID_392_" class="st0" d="M56.8,216.2c0.8,1.5,1.7,3.1,2.6,4.6l2.6-1.5c-0.9-1.5-1.7-3-2.5-4.5L56.8,216.2z"/>
		<path id="XMLID_393_" class="st0" d="M97.7,263c1.4,1,2.9,2,4.3,3l1.7-2.5c-1.4-0.9-2.8-1.9-4.2-2.9L97.7,263z"/>
		<path id="XMLID_394_" class="st0" d="M55,205.6l-2.8,1.2c0.7,1.6,1.4,3.2,2.2,4.8l2.7-1.3C56.4,208.7,55.7,207.1,55,205.6
			L55,205.6z"/>
		<path id="XMLID_395_" class="st0" d="M44.4,135.7l-3-0.3c-0.2,1.7-0.4,3.5-0.5,5.2l3,0.2C44,139.1,44.2,137.3,44.4,135.7
			L44.4,135.7z"/>
		<path id="XMLID_396_" class="st0" d="M84,54.7l-2.1-2.2c-1.2,1.2-2.5,2.5-3.7,3.7l2.2,2.1C81.6,57.1,82.8,55.9,84,54.7L84,54.7z"
			/>
		<path id="XMLID_397_" class="st0" d="M235.3,273.6l1.3,2.8c1.6-0.7,3.2-1.5,4.7-2.3l-1.4-2.7C238.4,272.1,236.8,272.9,235.3,273.6
			L235.3,273.6z"/>
		<path id="XMLID_398_" class="st0" d="M77,62.1l-2.3-2c-1.1,1.3-2.3,2.6-3.4,4l2.4,1.9C74.7,64.7,75.9,63.4,77,62.1L77,62.1z"/>
		<path id="XMLID_399_" class="st0" d="M307.4,191.6l2.9,0.9c0.5-1.6,1-3.3,1.5-5l-2.9-0.8C308.3,188.3,307.9,190,307.4,191.6
			L307.4,191.6z"/>
		<path id="XMLID_400_" class="st0" d="M225.9,277.6l1.1,2.8c1.6-0.6,3.3-1.3,4.9-1.9l-1.2-2.8C229,276.3,227.4,277,225.9,277.6
			L225.9,277.6z"/>
		<path id="XMLID_401_" class="st0" d="M216.1,280.8l0.8,2.9c1.7-0.5,3.3-1,5-1.5l-1-2.9C219.4,279.8,217.8,280.3,216.1,280.8
			L216.1,280.8z"/>
		<path id="XMLID_402_" class="st0" d="M70.5,70.1l-2.4-1.8c-1,1.4-2.1,2.8-3.1,4.2l2.5,1.7C68.5,72.8,69.5,71.4,70.5,70.1
			L70.5,70.1z"/>
		<path id="XMLID_403_" class="st0" d="M117,30.9l-1.4-2.7c-1.5,0.8-3.1,1.6-4.6,2.5l1.5,2.6C114,32.4,115.5,31.6,117,30.9L117,30.9
			z"/>
		<path id="XMLID_404_" class="st0" d="M126.3,26.5l-1.2-2.8c-1.6,0.7-3.2,1.4-4.8,2.1l1.3,2.8C123.2,27.9,124.7,27.2,126.3,26.5
			L126.3,26.5z"/>
		<path id="XMLID_405_" class="st0" d="M74.6,242c1.1,1.3,2.3,2.6,3.5,3.9l2.2-2.1c-1.2-1.2-2.3-2.5-3.4-3.8L74.6,242z"/>
		<path id="XMLID_406_" class="st0" d="M99.6,41.5L97.8,39c-1.4,1-2.8,2.1-4.2,3.1l1.9,2.4C96.8,43.6,98.2,42.5,99.6,41.5L99.6,41.5
			z"/>
		<path id="XMLID_407_" class="st0" d="M108.1,35.9l-1.6-2.6c-1.5,0.9-3,1.9-4.4,2.8l1.7,2.5C105.2,37.7,106.7,36.7,108.1,35.9
			L108.1,35.9z"/>
		<path id="XMLID_408_" class="st0" d="M91.5,47.8l-2-2.3c-1.3,1.1-2.6,2.3-3.9,3.4l2,2.2C88.9,50,90.2,48.9,91.5,47.8L91.5,47.8z"
			/>
		<path id="XMLID_409_" class="st0" d="M165.3,288.5c1.7,0.2,3.5,0.3,5.2,0.4l0.2-3c-1.7-0.1-3.4-0.2-5.1-0.4L165.3,288.5z"/>
		<path id="XMLID_410_" class="st0" d="M64.7,78.4l-2.6-1.6c-0.9,1.5-1.9,3-2.7,4.5l2.6,1.5C62.9,81.3,63.8,79.9,64.7,78.4
			L64.7,78.4z"/>
		<path id="XMLID_411_" class="st0" d="M175.8,286.1l-0.1,3c0.9,0,1.9,0,2.8,0c0.8,0,1.6,0,2.4,0l-0.1-3
			C179.2,286.1,177.5,286.1,175.8,286.1L175.8,286.1z"/>
		<path id="XMLID_412_" class="st0" d="M196.2,285l0.4,3c1.7-0.2,3.5-0.5,5.2-0.8l-0.5-3C199.5,284.5,197.8,284.7,196.2,285
			L196.2,285z"/>
		<path id="XMLID_413_" class="st0" d="M186,285.9l0.2,3c1.7-0.1,3.5-0.2,5.2-0.4l-0.3-3C189.4,285.7,187.7,285.8,186,285.9
			L186,285.9z"/>
		<path id="XMLID_414_" class="st0" d="M206.2,283.3l0.6,3c1.7-0.4,3.4-0.7,5.1-1.2l-0.7-2.9C209.6,282.5,207.9,282.9,206.2,283.3
			L206.2,283.3z"/>
		<path id="XMLID_416_" class="st0" d="M303.2,195.7L303.2,195.7h6.4h10.3l0,0h6.4h30.6l-12.3-43.2l12.2-45.9h-15.3l0,0H335h-9.3
			l0,0H131.8h-103l0,0h-6.3h-9.2l0,0H4.5H0.1l10,46.9L0,195.7h34.5l0,0h6.4h10.3l0,0h6.4H303.2z M338.5,152.5l0.5,1.9l10,35.3
			L338.5,152.5l4.8-18.1L338.5,152.5z"/>
		<path id="XMLID_419_" class="st1" d="M54.3,129.9H46l-11.6,34.8c-1.8,0.5-3.3,1.4-4.1,2.3l0.6,5h13.8l0.6-5
			c-0.7-0.7-1.8-1.5-3.1-2l1.5-4.9h12.1l1.6,5.1c-1.3,0.5-2.4,1.1-2.9,1.8l0.6,5h14.2l0.6-5c-0.7-0.8-2.1-1.6-3.6-2.1L54.3,129.9z
			 M47.8,147c1.5-4.9,1.5-8.6,1.5-8.6h0.9c0,0,0.1,3.7,1.6,8.7l2.3,7.4h-8.7L47.8,147z M86.5,157.5c11.2,0,18.6-3.6,18.6-13.7
			c0-10.6-6.3-13.3-16.7-13.5H72.3l-0.6,5c0.6,0.8,1.9,1.5,3.3,2.1V165c-1.5,0.5-2.7,1.2-3.3,2l0.6,5h16.4l0.6-5
			c-0.8-1-3.1-1.8-5.5-2.4v-7.1H86.5z M87.4,136.8c4.8,0,8.6,0.9,8.6,6.8c0,5.6-3,7.3-8.2,7.3h-4.1v-14L87.4,136.8L87.4,136.8z
			 M123.2,157.5c11.2,0,18.6-3.6,18.6-13.7c0-10.6-6.3-13.3-16.7-13.5H109l-0.6,5c0.6,0.8,1.9,1.5,3.3,2.1V165
			c-1.5,0.5-2.7,1.2-3.3,2l0.6,5h16.3l0.6-5c-0.8-1-3.1-1.8-5.5-2.4v-7.1H123.2z M124.1,136.8c4.8,0,8.6,0.9,8.6,6.8
			c0,5.6-3,7.3-8.2,7.3h-4.1v-14L124.1,136.8L124.1,136.8z M145.7,130.2l-0.6,5c0.6,0.8,1.9,1.5,3.3,2.1V165c-1.5,0.5-2.7,1.2-3.3,2
			l0.6,5h16.4l0.6-5c-0.8-1-3.1-1.8-5.5-2.4v-9.7h3.9c1.1,0,1.9,1.4,2.2,2.2l7,14.8h10.2l0.6-4.7c-0.7-0.9-2.2-1.7-3.9-2.2l-4.4-8.4
			c-0.8-1.5-2.5-2.5-4-3.1c4.5-1.7,9-5.1,9-11.1c0-9.8-6.3-12-16.7-12.2L145.7,130.2L145.7,130.2z M160.8,136.8
			c4.8,0,8.1,1.2,8.1,5.9c0,4.4-3,5.6-8.2,5.6h-3.5v-11.5H160.8z M183,151.2c0,15.5,6.1,21.3,17.1,21.3c11.2,0,18.2-7.2,18.2-22.1
			c0-15.6-6.1-20.7-17.3-20.7C189.9,129.7,183,136.3,183,151.2L183,151.2z M192.1,150.7c0-11.1,3.5-14.1,8.4-14.1
			c5,0,8.7,3.5,8.7,14.5s-3.5,14.5-8.6,14.5C195.8,165.6,192.1,161.7,192.1,150.7L192.1,150.7z M235.1,172.3h8.3l11.4-34.8
			c1.7-0.5,3.3-1.3,4.1-2.3l-0.6-5h-13.8l-0.6,5c0.6,0.8,1.8,1.5,3.2,2l-5.4,18c-1.5,4.9-1.5,8.6-1.5,8.6h-0.8c0,0-0.2-3.7-1.6-8.7
			l-5.1-17.9c1.3-0.5,2.5-1.1,3.1-1.9l-0.6-5H221l-0.6,5c0.6,0.9,1.9,1.5,3.4,2.1L235.1,172.3z M289,161.5l-4.5-0.5
			c-0.9,0.8-1.8,2.6-2.2,4.5h-9.9v-11.6h8.4c0.4,1.1,0.9,2.1,1.5,2.5l3.8-0.5v-10.8l-3.8-0.4c-0.6,0.5-1.1,1.5-1.5,2.5h-8.4v-10.4
			h9.4c0.5,1.9,1.3,3.7,2.2,4.5l4.5-0.5v-10.5h-27.6l-0.6,5c0.6,0.8,1.9,1.5,3.3,2.1V165c-1.5,0.5-2.7,1.2-3.3,2l0.6,5H289V161.5z
			 M308.9,172c11.1,0,19.3-5.5,19.3-20.3c0-14.5-8.6-21.5-21.2-21.5h-13.5l-0.6,5c0.6,0.8,1.9,1.5,3.3,2.1V165
			c-1.5,0.5-2.7,1.2-3.3,2l0.6,5H308.9z M305,165.4v-28.6h2.7c6.8,0,11.4,3.9,11.4,15.6c0,11-4.7,13-9.8,13H305z"/>
		<path id="XMLID_434_" class="st0" d="M118.3,84.7l-3.2,3.7l-5.1-1.9l-5.8,6.8l2.6,4.7l-3.1,3.6L92.4,80.5l3.1-3.6L118.3,84.7z
			 M106.2,85.2l-8.3-3l4.3,7.7L106.2,85.2z M120.3,83.2l-13-18.2l5.9-4.2c2.2-1.6,3.7-2.5,4.5-2.8c1.2-0.5,2.5-0.5,3.9-0.1
			s2.5,1.3,3.6,2.8c0.8,1.1,1.3,2.2,1.4,3.2s0.1,2-0.3,2.9c-0.3,0.9-0.7,1.6-1.3,2.2c-0.8,0.8-1.9,1.8-3.6,3l-2.4,1.7l4.9,6.8
			L120.3,83.2z M113.2,65.5l3.7,5.2l2-1.4c1.4-1,2.3-1.8,2.7-2.3c0.4-0.5,0.5-1.1,0.5-1.7c0-0.6-0.2-1.2-0.6-1.7
			c-0.5-0.7-1.1-1.1-1.8-1.2c-0.7-0.2-1.4-0.1-2,0.2c-0.5,0.2-1.4,0.8-2.7,1.8L113.2,65.5z M137.6,71.2l-8.5-20.6l6.7-2.8
			c2.5-1,4.2-1.6,5.1-1.7c1.3-0.2,2.6,0.1,3.8,0.8c1.2,0.7,2.2,1.9,2.8,3.5c0.5,1.3,0.7,2.4,0.6,3.5s-0.4,2-0.9,2.8
			s-1.1,1.4-1.8,1.9c-0.9,0.6-2.3,1.3-4.2,2.1l-2.7,1.1l3.2,7.8L137.6,71.2z M134.7,52.3l2.4,5.9l2.3-0.9c1.6-0.7,2.7-1.2,3.1-1.7
			s0.8-1,0.9-1.5c0.1-0.6,0.1-1.2-0.2-1.8c-0.3-0.8-0.8-1.3-1.4-1.6s-1.3-0.4-2.1-0.2c-0.5,0.1-1.5,0.5-3,1.1L134.7,52.3z
			 M156.9,63.7l-2.6-22.1l9.4-1.1c2.4-0.3,4.1-0.3,5.2,0s2.1,0.9,2.8,1.8c0.8,0.9,1.2,2.1,1.4,3.4c0.2,1.7-0.1,3.1-1,4.3
			c-0.8,1.2-2.2,2.1-4.1,2.6c1,0.4,1.9,1,2.6,1.6s1.7,1.7,3,3.3l3.2,4l-5.4,0.6l-3.8-4.5c-1.4-1.6-2.3-2.6-2.8-3s-1-0.6-1.5-0.8
			c-0.5-0.1-1.3-0.1-2.3,0l-0.9,0.1l1.1,9.2L156.9,63.7z M159.9,50.4l3.3-0.4c2.1-0.3,3.5-0.5,4-0.8c0.5-0.2,0.9-0.6,1.1-1.1
			c0.3-0.5,0.3-1.1,0.3-1.7c-0.1-0.8-0.4-1.3-0.8-1.7s-1-0.6-1.8-0.7c-0.4,0-1.5,0.1-3.3,0.3l-3.5,0.4L159.9,50.4z M179.5,50.4
			c0.3-2.3,0.8-4.1,1.7-5.6c0.6-1.1,1.5-2,2.4-2.8c1-0.8,2-1.3,3.1-1.7c1.5-0.4,3.1-0.5,4.9-0.3c3.3,0.4,5.8,1.7,7.5,4
			s2.4,5.2,1.9,8.8c-0.4,3.6-1.7,6.3-3.9,8.1c-2.2,1.8-4.9,2.5-8.2,2.1c-3.3-0.4-5.8-1.7-7.5-4C179.7,56.8,179.1,53.9,179.5,50.4
			L179.5,50.4z M184.1,50.8c-0.3,2.5,0.1,4.5,1.1,5.9s2.4,2.3,4.2,2.5c1.8,0.2,3.3-0.3,4.6-1.4c1.3-1.2,2.1-3,2.4-5.6
			c0.3-2.5,0-4.5-1-5.9s-2.4-2.2-4.2-2.4c-1.9-0.2-3.4,0.2-4.7,1.4C185.2,46.4,184.4,48.2,184.1,50.8L184.1,50.8z M208.5,67.5
			l0.6-23.7l4.5,1.8L212.9,63l11-13.4l4.5,1.7l-15.5,17.9L208.5,67.5z M222.2,73.7l12.6-18.4l13.6,9.4l-2.1,3.1l-9.9-6.8l-2.8,4.1
			l9.2,6.3l-2.1,3.1l-9.2-6.3l-3.4,5l10.2,7l-2.1,3.1L222.2,73.7z M256.9,72.6l4.9,6.6c1.1,1.5,1.9,2.7,2.2,3.6
			c0.5,1.3,0.6,2.6,0.4,3.9c-0.2,1.3-0.8,2.6-1.6,3.9c-0.8,1.2-2.1,2.5-3.8,3.8c-1.5,1.1-2.9,1.9-4.2,2.3c-1.6,0.5-3.2,0.7-4.6,0.5
			c-1.1-0.2-2.2-0.6-3.3-1.4c-0.9-0.6-1.8-1.6-2.8-2.9l-5.1-6.8L256.9,72.6z M256.6,78.5l-11.8,8.9l2,2.7c0.8,1,1.4,1.7,1.8,2
			c0.6,0.5,1.2,0.8,1.8,0.9c0.6,0.1,1.4,0,2.4-0.4s2.2-1.1,3.5-2.1c1.4-1,2.3-2,2.9-2.8s0.9-1.6,1-2.3c0.1-0.8-0.1-1.5-0.4-2.3
			c-0.3-0.6-0.9-1.6-2-3.1L256.6,78.5z"/>
		<path id="XMLID_449_" class="st0" d="M115.9,238.7l-3.7-3.2l1.9-5.1l-6.8-5.9l-4.7,2.6L99,224l21.2-11.2l3.6,3.1L115.9,238.7z
			 M115.5,226.6l3.1-8.3l-7.7,4.3L115.5,226.6z M118.2,239.5l11.1-19.3l6.3,3.6c2.4,1.4,3.9,2.3,4.5,3c0.9,0.9,1.5,2.1,1.7,3.5
			s-0.2,2.9-1,4.4c-0.7,1.2-1.5,2.1-2.4,2.6c-0.9,0.6-1.8,0.9-2.7,1c-0.9,0.1-1.8,0-2.5-0.2c-1-0.4-2.4-1-4.2-2l-2.5-1.5l-4.2,7.3
			L118.2,239.5z M131.4,225.7l-3.2,5.5l2.1,1.2c1.5,0.9,2.6,1.4,3.3,1.5c0.6,0.1,1.2,0,1.8-0.3c0.5-0.3,1-0.7,1.3-1.3
			c0.4-0.7,0.5-1.4,0.4-2.1s-0.5-1.3-1.1-1.8c-0.4-0.4-1.3-0.9-2.7-1.7L131.4,225.7z M136.7,249.1l7.1-21.1l6.8,2.3
			c2.6,0.9,4.3,1.6,5,2c1.1,0.7,1.9,1.8,2.3,3.1c0.5,1.3,0.4,2.9-0.2,4.5c-0.4,1.3-1,2.3-1.8,3s-1.6,1.2-2.5,1.5s-1.7,0.3-2.5,0.3
			c-1.1-0.1-2.6-0.5-4.5-1.2l-2.8-0.9l-2.7,8L136.7,249.1z M146.9,233l-2,6l2.3,0.8c1.7,0.6,2.8,0.8,3.5,0.8c0.6,0,1.2-0.2,1.7-0.6
			s0.8-0.9,1-1.5c0.3-0.8,0.3-1.5,0-2.1c-0.3-0.7-0.7-1.2-1.4-1.5c-0.5-0.3-1.5-0.7-3-1.2L146.9,233z M156.6,255.2l2.8-22.1l9.4,1.2
			c2.4,0.3,4.1,0.7,5.1,1.3c1,0.5,1.8,1.3,2.3,2.4s0.7,2.3,0.5,3.6c-0.2,1.7-0.9,3-2,3.9c-1.1,1-2.6,1.5-4.6,1.5
			c0.9,0.7,1.6,1.4,2.1,2.2c0.5,0.8,1.2,2.1,2.1,3.9l2.1,4.7l-5.3-0.7l-2.6-5.2c-0.9-1.9-1.6-3-1.9-3.5c-0.4-0.5-0.8-0.9-1.2-1.1
			c-0.5-0.2-1.2-0.4-2.2-0.5l-0.9-0.1l-1.2,9.2L156.6,255.2z M162.7,243l3.3,0.4c2.1,0.3,3.5,0.3,4,0.2c0.6-0.1,1-0.4,1.4-0.8
			s0.6-0.9,0.7-1.6c0.1-0.8,0-1.4-0.4-1.9c-0.3-0.5-0.9-0.9-1.6-1.1c-0.4-0.1-1.4-0.3-3.3-0.5l-3.5-0.4L162.7,243z M177.4,246.3
			c-0.2-2.3,0-4.2,0.6-5.8c0.4-1.2,1-2.2,1.8-3.2s1.7-1.7,2.7-2.2c1.3-0.7,2.9-1.1,4.7-1.3c3.3-0.3,6,0.6,8.1,2.5s3.3,4.6,3.6,8.3
			c0.3,3.6-0.5,6.5-2.3,8.7s-4.3,3.4-7.6,3.6c-3.3,0.3-6-0.6-8.1-2.4C178.8,252.6,177.6,249.9,177.4,246.3L177.4,246.3z M182,245.8
			c0.2,2.5,0.9,4.4,2.2,5.6c1.3,1.2,2.8,1.8,4.6,1.6c1.8-0.1,3.2-0.9,4.3-2.3c1.1-1.4,1.5-3.4,1.3-5.9c-0.2-2.6-0.9-4.4-2.1-5.6
			s-2.8-1.7-4.6-1.5c-1.9,0.1-3.3,0.9-4.3,2.2C182.2,241.3,181.8,243.3,182,245.8L182,245.8z M208.7,252.7L194,234.1l4.6-1.6
			l10.7,13.8l-0.1-17.4l4.5-1.5l-0.4,23.7L208.7,252.7z M224.2,246.9l-11.1-19.3l14.3-8.2l1.9,3.3l-10.4,6l2.5,4.3l9.7-5.6l1.9,3.3
			l-9.7,5.6l3,5.2l10.8-6.2l1.9,3.3L224.2,246.9z M227.6,219.4l6.2-5.4c1.4-1.2,2.6-2,3.5-2.4c1.2-0.6,2.5-0.8,3.9-0.6
			c1.4,0.1,2.7,0.6,4,1.3c1.3,0.8,2.6,1.9,4,3.5c1.2,1.4,2.1,2.7,2.6,4c0.6,1.6,0.9,3.1,0.8,4.5c-0.1,1.1-0.5,2.2-1.2,3.4
			c-0.5,0.9-1.4,1.9-2.7,3l-6.4,5.5L227.6,219.4z M233.5,219.3l9.7,11.2l2.5-2.2c0.9-0.8,1.6-1.5,1.9-1.9c0.4-0.6,0.7-1.3,0.8-1.9
			c0.1-0.6-0.1-1.4-0.5-2.4s-1.2-2.1-2.3-3.4c-1.1-1.3-2.1-2.2-2.9-2.7s-1.6-0.8-2.4-0.8c-0.7,0-1.5,0.1-2.3,0.6
			c-0.6,0.3-1.5,1.1-2.9,2.3L233.5,219.3z"/>
	</g>
	<path class="st1" d="M272.3,82.3c-1.3-0.7-2.7-0.9-4.2-0.9c-1.3,0-2.7,0.2-4.3,0.2c2.2,1.3,1.5,2.7,1.7,3.9c1.3,1,2.6,2.1,4.6,2.1
		h0.4c1-0.7,1.9-1.4,2.7-2C273.8,84.2,272.8,83.2,272.3,82.3z"/>
	<path class="st1" d="M276.2,111.5c0.4-0.5,1.2-0.6,2.2-0.8c-0.4-0.5,0.3-1.1-0.4-1.5h-1.8c-0.4,0.5-0.7,1-1,1.5
		C275.4,110.9,275.7,111.1,276.2,111.5z"/>
	<path class="st1" d="M252.7,95.5v-1.4c-0.8-0.4-1.7-0.7-2.5-1c-1.3,0.6-2,1.3-1.2,2.4H252.7z"/>
	<path class="st1" d="M238.2,96.3c-2.8,0-2.8,0-2.8,2.1c0.6,0.2,1.3,0.5,1.9,0.7C238.7,98.4,238.5,97.4,238.2,96.3z"/>
	<path class="st1" d="M61.9,111.5c0.4-0.5,1.2-0.6,2.2-0.8c-0.4-0.5,0.3-1.1-0.4-1.5h-1.8c-0.4,0.5-0.7,1-1,1.5
		C61.1,110.9,61.4,111.1,61.9,111.5z"/>
	<path class="st1" d="M58,82.3c-1.3-0.7-2.7-0.9-4.2-0.9c-1.3,0-2.7,0.2-4.3,0.2c2.2,1.3,1.5,2.7,1.7,3.9c1.3,1,2.6,2.1,4.6,2.1h0.4
		c1-0.7,1.9-1.4,2.7-2C59.5,84.2,58.5,83.2,58,82.3z"/>
	<path class="st1" d="M38.4,95.5v-1.4c-0.8-0.4-1.7-0.7-2.5-1c-1.3,0.6-2,1.3-1.2,2.4H38.4z"/>
	<path class="st1" d="M23.9,96.3c-2.8,0-2.8,0-2.8,2.1c0.6,0.2,1.3,0.5,1.9,0.7C24.4,98.4,24.2,97.4,23.9,96.3z"/>
	<path class="st1" d="M131.6,36.1c2.3-1.8,3-3.6,2.1-4.3H131C130.3,33.3,128.8,34.8,131.6,36.1z"/>
	<path class="st1" d="M196.5,16.4h1.2c0.6,0,1.1,0,1.7-0.3c-0.3-0.7,0.3-1.4-0.4-2.1h-3.9c0.5,0.9-0.1,1.6,0.6,2.4
		C196,16.4,196.2,16.3,196.5,16.4z"/>
	<path class="st1" d="M193,7.4c-0.7-0.8-1.9-1-3-1.4c-0.4,0.4-0.7,0.7-1.1,1c0.4,0.7,0.9,1.4,1.3,2C192.1,8.4,192.4,8.2,193,7.4z"/>
	<path class="st1" d="M177.4,4.8c-0.7,0.7-2.2,0.4-2.7,1.4v2c1,0.1,1.8,0.8,2.9,0.8c0.3,0,0.7-0.1,1-0.2c-0.9-0.9,0.8-1.5,0.8-2.5
		C178.7,5.8,178,5.3,177.4,4.8z"/>
	<path class="st1" d="M172.3,47.7c-0.8,0.1-1.2,0.5-1.5,1c1,0.5,1.7,0.8,2.2,0.8c0.4,0,0.7-0.2,1-0.6
		C173.6,48.5,173.3,47.8,172.3,47.7z"/>
	<path class="st1" d="M98.2,35.7c-0.7,0.4-1.1,1.1-0.6,2.1c0.3,0.1,0.5,0.1,0.8,0.1c0.9,0,1.5-0.3,2-0.8
		C99.7,36.6,99,36.2,98.2,35.7z"/>
	<path class="st1" d="M126.4,61.6c-0.2,0.1-0.4,0.1-0.6,0.1h-1c-0.4,0-0.7,0-1,0.2c-0.8,1.6-1.9,3.1,0.1,4.7h3.4
		c1.8-0.8,0.9-2.2,1.1-3.4C127.8,62.7,127.1,62.2,126.4,61.6z"/>
	<path class="st1" d="M136.8,141c-0.4,0.4-1.3,0.7-1.2,1.4c0.4,0.7,1.1,1.1,2,1.1c0.3,0,0.6-0.1,0.8-0.1c0.5-0.5,0.4-1.2,1.1-1.5
		c-0.3-0.3-0.7-0.6-1.1-0.9H136.8z"/>
	<path class="st1" d="M131.2,52.8c-1-0.6-2-0.9-3.1-0.9c-0.3,0-0.6,0.1-0.9,0.1c-0.5,0.4-1.1,0.9-1.9,1.5v1.8c0.6,0.5,1.3,1,1.9,1.5
		h3.4c0.6-0.7,1.7-1,1.8-2.6C132.5,53.8,131.3,53.3,131.2,52.8z"/>
	<path class="st1" d="M95.4,122.6c0.1-0.1,0.2-0.1,0.3,0h0.8c0.4,0,0.8-0.1,1-0.8c-0.6-0.5-1.4-1.1-2.1-1.7c-0.5,0.4-0.8,0.6-1.3,1
		C95.2,121.3,94.6,122.3,95.4,122.6z"/>
	<path class="st1" d="M99.4,144.6L99.4,144.6c-1.3,0-2.2,0.7-2.1,1.7c0.1,0.8,1,1.4,2,1.4c0.1,0,0.1,0,0.1-0.1
		c1.1,0,1.9-0.7,1.9-1.5S100.5,144.6,99.4,144.6z"/>
	<path class="st1" d="M88.2,118.8c-0.3,0.9-2.2,0.3-1.9,2c0.3-0.1,0.5-0.1,0.9-0.1h1c0.4,0,0.8-0.1,1.2-0.4
		C89.5,119.5,88.6,119.3,88.2,118.8z"/>
	<path class="st1" d="M114.3,138.7c-1.4,0.8-1.1,1.7-0.9,2.9c1.1-0.1,1.8,0.1,2.4-0.4c0.8-0.6,0.7-1.2,0.5-1.9
		C115.6,139.1,114.9,138.9,114.3,138.7z"/>
	<path class="st1" d="M105.5,126.9c-0.1,0.9-0.1,1.9-0.2,3.3c0.3-0.3,0.6-0.4,0.8-0.4s0.4,0.1,0.6,0.3c0.2,0.1,0.3,0.3,0.6,0.3
		c0.1,0,0.1,0,0.3-0.1c0.3-0.2,0.6-0.4,0.9-0.7v-1.9c-0.5-0.6-1.2-0.9-2.1-0.9C106.1,126.8,105.8,126.9,105.5,126.9z"/>
	<path class="st1" d="M176.8,34.3c-0.5,0-1,0.1-1.5,0.3c-0.5,0.1-1,0.3-1.6,0.3c-0.2,0-0.5-0.1-0.7-0.1c0.3,1.5,0.3,1.5,1.6,2.5
		c1-0.6,2.3-0.7,3.2-1.4c0.1-0.4,0.2-0.9-0.1-1.4C177.4,34.3,177.1,34.3,176.8,34.3z"/>
	<path class="st1" d="M169.6,145.4c-0.3-0.1-0.5-0.1-0.7-0.1c-1.7,0-2.2,1-3.1,1.6c0.4,1.5,2.1,1.4,3.4,2.2c0.7-0.6,1.6-0.8,1.4-1.8
		C170.4,146.8,170,146.1,169.6,145.4z"/>
	<path class="st1" d="M176.9,117.9v-3.2c-0.7,0.9-1.5,1-2.3,1h-1c-0.4,0-0.8,0.1-1.2,0.2c0.2,0.8-1.5,1.2-0.8,2.1
		c0.4,0.3,0.8,0.6,1.1,0.8h3.2C176.2,118.6,176.5,118.4,176.9,117.9z M173.4,118.2c-0.4-0.2-0.4-0.4,0-0.6
		C173.8,117.8,173.8,118.1,173.4,118.2z"/>
	<path class="st1" d="M193.9,64.1c-1.5-0.8-2.7-1.1-4-1.1c-0.6,0-1.1,0.1-1.6,0.2c-0.5,0.9,0.3,2-0.9,2.7c0.6,0.3,0.7,0.8,0.9,1.6
		c0.3-0.2,0.6-0.2,0.8-0.2c0.5,0,0.8,0.2,1.2,0.4c0.4,0.1,0.7,0.3,1.1,0.3h0.3c1-0.8,1.9-1.5,2.9-2.2
		C193.2,65.4,194.2,64.3,193.9,64.1z"/>
	<path class="st1" d="M192.3,117c-0.4,1.5,0.1,2.3,1.8,2.5c0.4-0.3,0.8-0.6,1.1-0.9c-0.3-0.5-0.7-1.1-1.1-1.6H192.3z M193.3,118.2
		c-0.4-0.2-0.4-0.4,0-0.6C193.7,117.8,193.7,118.1,193.3,118.2z"/>
	<path class="st1" d="M197.3,122.5c-0.2,0.9-2.6,0.2-1.8,1.8c0.6,0,1.1,0.1,1.7,0.1c0.5,0,0.9,0,1.2-0.3
		C198.7,123.3,197.9,123.1,197.3,122.5z"/>
	<path class="st1" d="M139.5,88.5c-0.5-0.1-0.9-0.2-1.2-0.2c-1.2,0-1.8,0.6-2.7,0.7v2.4c0.7,0.6,1.3,1.2,1.8,1.6
		c0.3,0.1,0.6,0.1,0.8,0.1c1.5,0,2.1-1,3-1.6v-1.8c-0.2,0.2-0.3,0.3-0.5,0.4C140.1,89.4,139.6,88.7,139.5,88.5z"/>
	<path class="st1" d="M149.9,130.8c-1.1,1-2.2,1.4-2.4,2.3c0.5,0.5,0.9,1.1,1.9,1.1h0.3C150.1,133.3,149.8,132.3,149.9,130.8z"/>
	<path class="st1" d="M160.7,139c-0.7,0.8-2.3,1.2-2,2.4c0.2,0.1,0.4,0.1,0.6,0.1c1.1,0,1.6-0.8,2.5-0.9
		C162.1,139.8,161.3,139.6,160.7,139z"/>
	<path class="st1" d="M155,147.6c-0.4,0-0.7,0.1-1.1,0.3v1.3c0.8,0.4,1.7,0.7,2.5,1c0.7-0.3,1.4-0.6,1.5-1.6
		c-0.4-0.1-0.9-0.4-1.5-0.6C156.1,147.8,155.5,147.6,155,147.6z"/>
	<path class="st1" d="M185.4,19h-2.9c0.2,0.9-0.2,1.6,0.2,2.1c0.6,0.6,1.3,0.9,1.9,0.9c0.2,0,0.3-0.1,0.4,0c0.9-0.3,0.5-0.7,0.7-0.9
		c0.2-0.2,0.5-0.4,0.8-0.6C185.7,20.2,185.9,19.5,185.4,19z"/>
	<path class="st1" d="M10.3,140.5c-0.4,0-0.9-0.2-1.3-0.4c-0.5-0.2-0.9-0.4-1.4-0.4c-0.1,0-0.2,0-0.3,0c0.4,0.7,0.6,1.5,0.6,2.3
		c0.8-0.4,1.7-0.4,2.6-0.4h0.8c0.1,0,0.1,0,0.1,0v-1.4C10.9,140.4,10.6,140.5,10.3,140.5z"/>
	<path class="st1" d="M10.5,114c0.4,0.8,1.1,1.2,2.2,1.2c0.3,0,0.6,0,0.8-0.1c-0.7-0.7,0.8-0.9,0.7-1.6c-0.9-0.5-1.5-0.8-1.9-0.8
		C11.8,112.7,11.4,113.1,10.5,114z"/>
	<path class="st1" d="M63.8,115.7c-0.4,0-0.8,0.1-1.2,0.1c0.3,0.9-1.7,1.3-0.8,2.4h0.4c1.7,0,1.5-1.5,2.6-2.2
		C64.5,115.8,64.1,115.7,63.8,115.7z"/>
	<path class="st1" d="M67.6,144.1c-0.3-0.1-0.6-0.1-0.8-0.1c-1,0-1.6,0.5-2.1,1v1.2c0.4,0.3,0.8,0.6,1.2,0.9h1.6
		c0.3-0.5,0.7-1.1,1.1-1.6C67.7,145.2,68.1,144.5,67.6,144.1z"/>
	<path class="st1" d="M56.6,95.5c-0.8-0.8-1.4-1.3-1.8-1.7c-0.5-0.1-1-0.1-1.5-0.1c-1.3,0-2.3,0.3-3.1,0.6c-1.8,1.5-1.5,2.8-1.5,4.1
		c0.7,0.5,1.3,1,1.9,1.4h5c0.4-0.4,0.7-0.6,1-0.8V95.5z"/>
	<path class="st1" d="M62.8,115.1c0.3-0.7,1.5-0.3,1.8-0.9c0.4-0.9,1.6-1.7,0.3-3c-1.3,0.6-2,1.7-3.3,1.7
		C61.4,114.1,61.8,114.7,62.8,115.1z"/>
	<path class="st1" d="M45.6,106.2c-0.6-0.6-1.2-0.9-2.1-0.9c-0.3,0-0.5,0.1-0.7,0.1c-0.4,0.3-0.7,0.6-1.1,0.9l0.1,0.2
		c0.9,0.5,1.6,0.7,2.2,0.7S45.1,106.9,45.6,106.2z"/>
	<path class="st1" d="M319.8,126.9c-0.1,0.9-0.1,1.9-0.2,3.3c0.3-0.3,0.6-0.4,0.8-0.4s0.4,0.1,0.6,0.3c0.1,0.1,0.3,0.3,0.6,0.3
		c0.1,0,0.1,0,0.3-0.1c0.3-0.2,0.6-0.4,0.9-0.7v-1.9c-0.5-0.6-1.2-0.9-2.1-0.9C320.4,126.8,320.1,126.9,319.8,126.9z"/>
	<path class="st1" d="M313.7,144.6L313.7,144.6c-1.3,0-2.2,0.7-2.1,1.7c0.1,0.8,1,1.4,2,1.4c1.2,0,2-0.7,2-1.6
		C315.6,145.3,314.8,144.6,313.7,144.6z"/>
	<path class="st1" d="M328.6,138.7c-1.4,0.8-1.1,1.7-0.9,2.9c1-0.1,1.8,0.1,2.4-0.4c0.8-0.6,0.7-1.2,0.5-1.9
		C329.9,139.1,329.2,138.9,328.6,138.7z"/>
	<path class="st1" d="M224.8,114c0.4,0.8,1.1,1.2,2.2,1.2c0.3,0,0.6,0,0.8-0.1c-0.7-0.7,0.8-0.9,0.7-1.6c-0.9-0.5-1.5-0.8-1.9-0.8
		C226.1,112.7,225.7,113.1,224.8,114z"/>
	<path class="st1" d="M231.1,32c0.3-0.2,0.5-0.4,0.5-0.4c-0.9-0.9-1.8-1.7-2.5-2.3c-0.2-0.1-0.3-0.1-0.4-0.1c-0.4,0-0.6,0.2-0.8,0.3
		c-0.2,0.2-0.4,0.3-0.7,0.3c-0.7-0.2-1.3-0.7-2.1-0.7c-0.3,0-0.6,0.1-1,0.3c0.1,1.4-1.4,2.4-1.8,3.8c0.4,1.9,2.7,2.7,3.9,4.1
		c0.9-0.4,1.6-0.8,2.3-0.8h0.5c1-0.7,1.9-1.4,2.9-2.1C232.8,33.4,230.6,32.9,231.1,32z M225.5,32.1c-0.2,0.1-0.5,0.2-0.7,0.2
		s-0.6-0.1-1-0.4c0.6-0.2,1.1-0.4,1.7-0.6V32.1z"/>
	<path class="st1" d="M246.6,25.7c-0.1,1.1-1.5,1.8-1.6,2.9c0.3,0.3,0.6,0.5,0.9,0.7c0.4-0.3,0.8-0.6,1.2-0.8
		C247,27.6,247.5,26.6,246.6,25.7z"/>
	<path class="st1" d="M309.7,122.6c0.1-0.1,0.2-0.1,0.3,0h0.8c0.4,0,0.8-0.1,1-0.8c-0.6-0.5-1.4-1.1-2.1-1.7c-0.5,0.4-0.8,0.6-1.3,1
		C309.5,121.3,308.9,122.3,309.7,122.6z"/>
	<path class="st1" d="M223.3,140.1c-0.5-0.2-0.9-0.4-1.4-0.4c-0.3,0-0.6,0.1-1,0.3v2.8c1.3-1.1,2.5-1.2,3.8-1.2h0.8
		c0.1,0,0.1,0,0.1,0v-1.4c-0.4,0.2-0.7,0.3-1,0.3C224.2,140.5,223.7,140.3,223.3,140.1z"/>
	<path class="st1" d="M210.4,40.2c-0.4-0.7-1.2-1.2-2-1.2c-0.3,0-0.5,0-0.8,0.1c-1,0.3-1.7,1.2-1,2.2c0.7,0.7,1.8,0.9,2.8,1.3
		C209.6,41.8,210.7,41.2,210.4,40.2z"/>
	<path class="st1" d="M194.2,40.3c-0.7,0.5-1.5,1.1-2.1,1.5c0,0.4-0.1,0.6,0,0.8c0.3,0.6,0.6,1.2,1,2h1.7c0.7,0,1.3,0.1,1.8,0.6
		c0.9-0.8,2.4-1.3,1.8-2.7C197.3,41.4,195.9,40.6,194.2,40.3z"/>
	<path class="st1" d="M220.5,23.8h-1.9c-1.3,0.2-0.8,1.2-1.3,1.8c-0.6,0.6-1.8,0.3-2.1,1.1c0,0.3,0,0.7,1.6,1.2
		c1.5-0.1,1.6-0.3,2-0.4l0.2,0.2c0,0.2-0.2,0.3-0.9,0.3c-0.3,0-0.7,0-1.3-0.1c-0.4,0.2-0.4,0.2-0.2,0.2s0.6-0.1,1-0.1h0.1
		c0.3,0,0.6,0.1,0.8,0.3c0.2,0.2,0.5,0.3,0.8,0.3c0.2,0,0.4,0,0.7-0.2c-0.7-1.4,1.2-2.6,0.8-4.1C220.8,24.1,220.6,24,220.5,23.8z"/>
	<path class="st1" d="M210.8,129.9c-0.1,0.5-1.2,0.5-1.1,1.6c0.6,0.3,1.4,0.8,2.2,1.3c0.2-0.1,0.6-0.4,0.9-0.8v-1.2
		c-0.5-0.3-0.8-0.9-1.8-0.9C211,129.9,210.9,129.9,210.8,129.9z"/>
	<path class="st1" d="M215.6,122.5H214c-0.7,0.4-0.1,1.3-1.1,1.5c0.8,0.4,0.4,1.3,1.4,1.6c0.5,0,1,0,1.3-0.1
		c0.4-0.6,0.7-1.1,1.1-1.7C215.5,123.8,216.4,122.8,215.6,122.5z"/>
	<path class="st1" d="M302.5,118.8c-0.3,0.9-2.2,0.3-1.9,2c0.3-0.1,0.5-0.1,0.9-0.1h1c0.4,0,0.8-0.1,1.2-0.4
		C303.8,119.5,302.9,119.3,302.5,118.8z"/>
	<path class="st1" d="M267.5,93.7c-1.2,0-2.2,0.3-3,0.6c-1.8,1.5-1.5,2.8-1.5,4.1c0.7,0.5,1.4,1,1.9,1.4h5c0.4-0.4,0.7-0.6,1-0.8
		v-3.5c-0.8-0.8-1.4-1.3-1.8-1.7C268.5,93.7,268,93.7,267.5,93.7z"/>
	<path class="st1" d="M259.8,106.2c-0.5-0.6-1.2-0.9-2.1-0.9c-0.2,0-0.4,0.1-0.6,0.1c-0.4,0.3-0.7,0.6-1.1,0.9l0.1,0.2
		c0.9,0.5,1.6,0.7,2.2,0.7S259.4,106.9,259.8,106.2z"/>
	<path class="st1" d="M281.9,144.1c-0.3-0.1-0.6-0.1-0.8-0.1c-1,0-1.6,0.5-2.1,1v1.2c0.4,0.3,0.8,0.6,1.2,0.9h1.6
		c0.3-0.5,0.7-1.1,1.1-1.6C282,145.2,282.4,144.5,281.9,144.1z"/>
	<path class="st1" d="M277.1,115.1c0.3-0.7,1.4-0.3,1.8-0.9c0.4-0.9,1.6-1.7,0.3-3c-1.3,0.6-2,1.7-3.3,1.7
		C275.6,114.1,276.1,114.7,277.1,115.1z"/>
	<path class="st1" d="M278.1,115.7c-0.4,0-0.8,0.1-1.2,0.1c0.3,0.9-1.7,1.3-0.8,2.4h0.4c1.7,0,1.5-1.5,2.6-2.2
		C278.8,115.8,278.4,115.7,278.1,115.7z"/>
	<polygon class="st1" points="161.3,53.2 161.3,53.2 161.3,53.2 161.3,53.2 	"/>
	<path class="st1" d="M265.5,219.6c0.5-1.9,2.4-0.7,3.8-1.8c0.5-1.4,0.5-2.7-0.5-3.9c-0.2-0.5,1.1-0.3,0.4-1.1
		c-1.8,0.8-4.1,0.7-5.2,2.4c-0.3,0.7,0.4,1.2,0.6,1.8c-0.4,0.2-0.7,0.4-0.8,0.4C264.5,218.3,264.8,218.7,265.5,219.6z"/>
	<path class="st1" d="M275.8,185.3c0.1,2-2.7,1.9-3.9,3.1c0.3,0.5,0.6,1,1,1.6h4.3c0.6-1.6,3.4-0.7,4.1-2.3
		c-1.5-0.4-0.4-1.7-1.2-2.4c-0.1-0.1-0.3-0.1-0.4-0.1c-0.6,0-0.8,0.5-1.3,0.6c-0.4-0.5-0.8-0.6-1.4-0.6
		C276.7,185.2,276.3,185.2,275.8,185.3z"/>
	<path class="st1" d="M286.1,192.4c0.5-1.3-0.6-2-1.2-2.9c-2,0-1.7,1.5-2.6,2.2c0.6,0.7,1.3,0.9,2.1,0.9
		C284.9,192.6,285.5,192.5,286.1,192.4z M284.2,191.9c-0.4-0.2-0.4-0.4,0-0.6C284.5,191.5,284.5,191.7,284.2,191.9z"/>
	<path class="st1" d="M215.5,196.2h2.7c0-0.8,1.2-1.3,1-2c-0.4-0.3-0.7-0.6-1.1-0.9c-0.3-0.1-0.5-0.1-0.8-0.1c-0.9,0-1.6,0.4-2.1,1
		C215.3,194.8,214.9,195.5,215.5,196.2z"/>
	<path class="st1" d="M221.9,185.7c-1-0.9,0.4-1,0.4-1.5c-1.1-0.8-0.4-2.7-2.7-2.7c-0.2,0-0.5,0-0.9,0.1c-0.3,0.4-1,1-1.8,1.8v1.5
		c0.4,0.3,0.8,0.6,1.1,0.8H221.9z"/>
	<path class="st1" d="M242.8,189.6c0.1-0.1,0.3-0.1,0.4-0.1h1.2c0.4,0,0.8,0,1.1-0.2V188c-0.7-0.5-1.3-1-2.2-1.6
		c-0.2,1-1.7,0.4-1.8,1.2S241.7,189,242.8,189.6z"/>
	<path class="st1" d="M241.5,200.2c0.2,0.3-0.3,0.8,0.8,0.9c0-0.8,0-1.6,0.1-2c0.7-0.9,1.9-1.1,1.5-2c-0.4-0.3-0.7-0.6-1.1-0.9
		c-1.7,0.8-0.9,2.4-2.2,3.2C241,199.8,241.3,199.9,241.5,200.2z"/>
	<path class="st1" d="M276.1,160.6L276.1,160.6c0.2-0.5,1.3-0.5,1.2-1.3c-0.3-0.6-0.7-1-1.9-1.2c-0.2,0.5-1.4,0.5-1.2,1.5
		C274.7,160,275,160.6,276.1,160.6z"/>
	<path class="st1" d="M311.9,160c0.3,0.1,0.6,0.1,0.9,0.1c0.9,0,1.5-0.4,2-1.1v-3c-0.4-0.3-0.6-0.5-1.2-0.9H312
		c-0.3,0-0.7,0.1-1,0.2c-0.3,0.3-0.6,0.5-0.9,0.7C309.7,157.6,310.4,158.9,311.9,160z"/>
	<path class="st1" d="M314.7,203.4c-0.1-1.6-0.5-2.2-1.5-2.2h-0.4c-0.4,0.6-0.8,1.2-1.3,2c0.5,0.4,0.9,0.6,1.2,0.9
		C313.4,203.9,314,203.6,314.7,203.4z"/>
	<path class="st1" d="M328.7,186.5c0.3,0,0.7-0.1,1.1-0.2c0.4-1.1,0-1.9-1.4-2.3c-0.1,0-0.1,0-0.2,0c-0.3,0-0.5,0.2-0.7,0.4
		c-0.4,0.3-0.8,0.5-0.7,1C327.3,186.1,327.9,186.5,328.7,186.5z"/>
	<path class="st1" d="M51.2,219.6c0.5-1.9,2.4-0.7,3.8-1.8c0.5-1.4,0.5-2.7-0.5-3.9c-0.3-0.5,1.1-0.3,0.4-1.1
		c-1.8,0.8-4.1,0.7-5.2,2.4c-0.3,0.7,0.4,1.2,0.6,1.8c-0.4,0.2-0.7,0.4-0.8,0.4C50.2,218.3,50.5,218.7,51.2,219.6z"/>
	<path class="st1" d="M61.5,185.3c0.1,2-2.7,1.9-3.9,3.1c0.4,0.5,0.6,1,1,1.6h4.3c0.6-1.6,3.4-0.7,4.2-2.3c-1.6-0.4-0.5-1.7-1.3-2.4
		c-0.1-0.1-0.3-0.1-0.4-0.1c-0.6,0-0.8,0.5-1.3,0.6c-0.4-0.5-0.8-0.6-1.4-0.6C62.4,185.2,62,185.2,61.5,185.3z"/>
	<path class="st1" d="M61.8,160.6h0.1c0.1-0.5,1.2-0.5,1.1-1.3c-0.3-0.6-0.7-1-1.9-1.2c-0.2,0.5-1.4,0.5-1.2,1.5
		C60.4,160,60.7,160.6,61.8,160.6z"/>
	<path class="st1" d="M71.8,192.4c0.5-1.3-0.6-2-1.2-2.9c-2,0-1.7,1.5-2.6,2.2c0.6,0.7,1.3,0.9,2.1,0.9
		C70.6,192.6,71.2,192.5,71.8,192.4z M69.9,191.9c-0.4-0.2-0.4-0.4,0-0.6C70.2,191.5,70.2,191.7,69.9,191.9z"/>
	<path class="st1" d="M8,184.2c-1.1-0.8-0.4-2.7-2.7-2.7c-0.2,0-0.5,0-0.9,0.1l-1.2,1.2c0.1,0.8,0,1.6-0.2,2.4
		c0.3,0.2,0.5,0.4,0.7,0.5h3.9C6.6,184.8,8,184.7,8,184.2z"/>
	<path class="st1" d="M0.9,195.1c0.4-0.1,0.9-0.2,1.4-0.2c0.8,0,1.5,0.2,2.1,0.5c0.3-0.4,0.7-0.7,0.6-1.2c-0.4-0.3-0.7-0.6-1.1-0.9
		c-0.3-0.1-0.5-0.1-0.8-0.1c-0.9,0-1.6,0.4-2.1,1C0.9,194.5,0.9,194.8,0.9,195.1z"/>
	<path class="st1" d="M28.5,189.6c0.1-0.1,0.3-0.1,0.4-0.1h1.2c0.4,0,0.8,0,1.1-0.2V188c-0.7-0.5-1.3-1-2.2-1.6
		c-0.2,1-1.7,0.4-1.8,1.2C27.1,188.4,27.4,189,28.5,189.6z"/>
	<path class="st1" d="M177.4,208.6c-0.7,0.7-2.2,0.4-2.7,1.4v2c1,0.1,1.8,0.8,2.9,0.8c0.3,0,0.7-0.1,1-0.2c-0.9-0.9,0.8-1.5,0.8-2.5
		C178.7,209.6,178,209.1,177.4,208.6z"/>
	<path class="st1" d="M172.3,251.5c-0.8,0.1-1.2,0.5-1.5,1c1,0.5,1.7,0.8,2.2,0.8c0.4,0,0.7-0.2,1-0.6
		C173.6,252.3,173.3,251.7,172.3,251.5z"/>
	<path class="st1" d="M196.5,220.2h1.2c0.6,0,1.1,0,1.7-0.3c-0.3-0.7,0.3-1.4-0.4-2.1h-3.9c0.5,0.9-0.1,1.6,0.6,2.4
		C196,220.2,196.2,220.1,196.5,220.2z"/>
	<path class="st1" d="M191.7,188.2c1.2-0.4,1.1-1.6,2.1-2.2c-1.1-0.4-1.4-1.4-2.9-1.5c-0.9,0.8-1.9,1.6-3,2.5
		c1.1,0.7,2.1,1.3,3.3,1.3C191.4,188.3,191.5,188.3,191.7,188.2z"/>
	<path class="st1" d="M193,211.2c-0.7-0.8-1.9-1-3-1.4c-0.4,0.4-0.7,0.7-1.1,1c0.4,0.7,0.9,1.4,1.3,2
		C192.1,212.2,192.4,212,193,211.2z"/>
	<path class="st1" d="M178.1,174.7c0.4,0.1,0.7,0.1,1.1,0.1c1.2,0,2.3-0.5,3.4-0.9c1.2-0.4,1.8-1.4,2.2-2.3c1.1-2.6-1.6-3.9-3.3-5.3
		h-4.1c-5.5,3.5-4.7,3.5-3.5,6.5C175.6,173.3,177.1,173.8,178.1,174.7z"/>
	<path class="st1" d="M97.6,160c0.3,0.1,0.6,0.1,0.9,0.1c0.9,0,1.5-0.4,2-1.1v-3c-0.4-0.3-0.6-0.5-1.2-0.9h-1.6
		c-0.3,0-0.7,0.1-1,0.2c-0.3,0.3-0.6,0.5-0.9,0.7C95.4,157.6,96.1,158.9,97.6,160z"/>
	<path class="st1" d="M98.2,239.5c-0.7,0.4-1.1,1.1-0.6,2.1c0.3,0.1,0.5,0.1,0.8,0.1c0.9,0,1.5-0.3,2-0.8
		C99.7,240.4,99,240,98.2,239.5z"/>
	<path class="st1" d="M100.4,203.4c-0.1-1.6-0.5-2.2-1.5-2.2h-0.4c-0.4,0.6-0.8,1.2-1.3,2c0.5,0.4,0.9,0.6,1.2,0.9
		C99.1,203.9,99.7,203.6,100.4,203.4z"/>
	<path class="st1" d="M136.3,205.6c0.1,0.5-0.1,0.8,0.4,1c0.1,0.1,0.3,0.1,0.5,0.1c0.3,0,0.6-0.1,0.7-0.4c0.2-1.4-1.6-1.3-2.4-1.9
		c0.1-1-0.2-1.8-1.6-2.1c-0.9,0.3-1.6,0.6-1.6,1.5c1,1,2,1.8,3.5,1.8H136.3z"/>
	<path class="st1" d="M131.6,239.9c2.3-1.8,3-3.6,2.1-4.3H131C130.3,237.1,128.8,238.6,131.6,239.9z"/>
	<path class="st1" d="M126.4,265.4c-0.2,0.1-0.4,0.1-0.6,0.1h-1c-0.4,0-0.7,0-1,0.2c-0.8,1.6-1.9,3.1,0.1,4.7h3.4
		c1.8-0.8,0.9-2.2,1.1-3.4C127.8,266.5,127.1,266,126.4,265.4z"/>
	<path class="st1" d="M114.4,186.5c0.3,0,0.7-0.1,1.1-0.2c0.4-1.1,0-1.9-1.4-2.3c-0.1,0-0.1,0-0.2,0c-0.3,0-0.5,0.2-0.7,0.4
		c-0.4,0.3-0.8,0.5-0.7,1C113,186.1,113.6,186.5,114.4,186.5z"/>
	<path class="st1" d="M117.4,199.9c1-0.3,0.5-1.3,1.4-1.6h0.1c-0.1,0-0.2-0.1-0.4-0.2h-1.7c-0.4,0.3-0.7,0.6-1.1,0.9
		C116.2,199.3,116.5,199.9,117.4,199.9C117.4,199.9,117.4,199.9,117.4,199.9z"/>
	<path class="st1" d="M131.2,256.6c-1-0.6-2-0.9-3.1-0.9c-0.3,0-0.6,0.1-0.9,0.1c-0.5,0.4-1.1,0.9-1.9,1.5v1.8
		c0.6,0.5,1.3,1,1.9,1.5h3.4c0.6-0.7,1.7-1,1.8-2.6C132.5,257.6,131.3,257.1,131.2,256.6z"/>
	<path class="st1" d="M137.8,296.1c0.7,0,1.3,0.1,1.8,0.4c0.6-0.3,1-0.9,1.6-1.2v-1.8c-0.2,0.2-0.3,0.3-0.5,0.4
		c-0.6-0.7-1.1-1.4-1.2-1.6c-0.5-0.2-0.9-0.2-1.2-0.2c-1.2,0-1.8,0.6-2.7,0.7v2.4c0.4,0.4,0.8,0.7,1.2,1
		C137.1,296.2,137.4,296.1,137.8,296.1z"/>
	<path class="st1" d="M110.6,156.4c-0.2,0.1-0.3,0.1-0.4,0.1c-0.3,0-0.5-0.1-0.7-0.3c-0.2-0.2-0.4-0.3-0.6-0.3h-0.1
		c-2.5,1.4-0.1,2.4,0,3.6c1.2-0.1,1.6-0.6,2.1-1.1C110.7,157.8,111.2,157,110.6,156.4z"/>
	<path class="st1" d="M108.3,205.5h-0.4c-0.2,0.2-0.6,0.6-1,1c-0.1,0.7,0,1.2,0.7,1.2c0.3,0,0.7-0.1,1.1-0.4v-0.7l-0.2-0.2
		c0-0.1,0.1-0.2,0.1-0.2s0.1,0.1,0.1,0.4c0.2,0,0.2,0,0.3,0c0.1,0,0.1,0.1-0.2,0.7c0.3,0.3,0.6,0.4,0.8,0.4c0.5,0,0.6-0.7,0.2-1.4
		C109.7,206,109.2,205.5,108.3,205.5z"/>
	<path class="st1" d="M123.7,210.1c-0.6-0.9-1-1.3-1.4-1.9c-1.7,1-2.6,1.7-1.5,2.8c0.3,0.3,0.7,0.6,1.2,0.6h0.4
		C122.3,210.7,123.8,210.4,123.7,210.1z"/>
	<path class="st1" d="M185.4,222.8h-2.9c0.2,0.9-0.2,1.6,0.2,2.1c0.6,0.6,1.3,0.9,1.9,0.9c0.2,0,0.3-0.1,0.4,0
		c0.9-0.3,0.5-0.7,0.7-0.9c0.2-0.2,0.5-0.4,0.8-0.6C185.7,224,185.9,223.3,185.4,222.8z"/>
	<path class="st1" d="M176.8,238.1c-0.5,0-1,0.1-1.5,0.3c-0.5,0.1-1,0.3-1.6,0.3c-0.2,0-0.5-0.1-0.7-0.1c0.3,1.5,0.3,1.5,1.6,2.5
		c1-0.6,2.3-0.7,3.2-1.4c0.1-0.4,0.2-0.9-0.1-1.4C177.4,238.1,177.1,238.1,176.8,238.1z"/>
	<path class="st1" d="M194.2,244.1c-0.7,0.5-1.5,1.1-2.1,1.5c0,0.4-0.1,0.6,0,0.8c0.3,0.6,0.6,1.2,1,2h1.7c0.7,0,1.3,0.1,1.8,0.6
		c0.9-0.8,2.4-1.3,1.8-2.7C197.3,245.2,195.9,244.4,194.2,244.1z"/>
	<path class="st1" d="M193.9,267.8c-1.5-0.8-2.7-1.1-4-1.1c-0.6,0-1.1,0.1-1.6,0.2c-0.5,0.9,0.3,2-0.9,2.7c0.6,0.3,0.7,0.8,0.9,1.6
		c0.3-0.2,0.6-0.2,0.8-0.2c0.5,0,0.8,0.2,1.2,0.4c0.4,0.1,0.7,0.3,1.1,0.3h0.3c1-0.8,1.9-1.5,2.9-2.2
		C193.2,269.1,194.2,268,193.9,267.8z"/>
	<path class="st1" d="M81.1,239.9c1.6-0.3,2-1.1,1.9-2.2c-0.5-0.3-0.8-0.9-1.7-0.9H81c-0.3,0.3-0.7,0.6-1.3,1
		C81.2,238.2,80.1,239.4,81.1,239.9z"/>
	<path class="st1" d="M75.6,217.1c-2.2,0-4.2,0.4-6.3,1.4c0,1.4,0.3,2.7-0.9,3.7c0.8,0.7,1.4,1.2,2.1,1.7h2.4c1,0,1.9-0.1,2.8-0.6
		c0.2,0.5,0.3,0.8,0.4,1.3c0.9-0.7,1.7-1.5,2.1-1.5c3.3-2.5,0.1-4.1-0.4-5.9C77,217.1,76.3,217.1,75.6,217.1z M71.1,219.2
		c0.1-0.1,0.3-0.2,0.4-0.2s0.2,0.1,0.4,0.2c-0.1,0.1-0.3,0.2-0.4,0.2C71.4,219.4,71.2,219.3,71.1,219.2z M72.3,220.7
		c-0.1,0-0.3-0.1-0.4-0.2c0.1-0.1,0.3-0.2,0.4-0.2c0.1,0,0.2,0,0.4,0.2C72.6,220.6,72.4,220.7,72.3,220.7z"/>
	<path class="st1" d="M324.9,156.4c-0.2,0.1-0.3,0.1-0.4,0.1c-0.3,0-0.5-0.1-0.7-0.3c-0.2-0.2-0.4-0.3-0.6-0.3h-0.1
		c-2.5,1.4-0.1,2.4,0,3.6c1.2-0.1,1.6-0.6,2.1-1.1C325,157.8,325.5,157,324.9,156.4z"/>
	<path class="st1" d="M231.1,235.8c0.3-0.2,0.5-0.4,0.5-0.4c-0.9-0.9-1.8-1.7-2.5-2.3c-0.2-0.1-0.3-0.1-0.4-0.1
		c-0.4,0-0.6,0.2-0.8,0.3c-0.2,0.2-0.4,0.3-0.7,0.3c-0.7-0.2-1.3-0.7-2.1-0.7c-0.3,0-0.6,0.1-1,0.3c0.1,1.4-1.4,2.4-1.8,3.8
		c0.4,1.9,2.7,2.7,3.9,4.1c0.9-0.4,1.6-0.8,2.3-0.8h0.5c1-0.7,1.9-1.4,2.9-2.1C232.8,237.2,230.6,236.7,231.1,235.8z M225.5,235.9
		c-0.2,0.1-0.5,0.2-0.7,0.2s-0.6-0.1-1-0.4c0.6-0.2,1.1-0.4,1.7-0.6V235.9z"/>
	<path class="st1" d="M246.6,229.5c-0.1,1.1-1.5,1.8-1.6,2.9c0.3,0.3,0.6,0.5,0.9,0.7c0.4-0.3,0.8-0.6,1.2-0.8
		C247,231.4,247.5,230.4,246.6,229.5z"/>
	<path class="st1" d="M210.4,244c-0.4-0.7-1.2-1.2-2-1.2c-0.3,0-0.5,0-0.8,0.1c-1,0.3-1.7,1.2-1,2.2c0.7,0.7,1.8,0.9,2.8,1.3
		C209.6,245.6,210.7,245,210.4,244z"/>
	<path class="st1" d="M220.5,227.6h-1.9c-1.3,0.2-0.8,1.2-1.3,1.8c-0.6,0.6-1.8,0.3-2.1,1.1c0,0.3,0,0.7,1.6,1.2
		c1.5-0.1,1.6-0.3,2-0.4l0.2,0.2c0,0.2-0.2,0.3-0.9,0.3c-0.3,0-0.7,0-1.3-0.1c-0.4,0.2-0.4,0.2-0.2,0.2s0.6-0.1,1-0.1h0.1
		c0.3,0,0.6,0.1,0.8,0.3c0.2,0.1,0.5,0.3,0.8,0.3c0.2,0,0.4,0,0.7-0.2c-0.7-1.4,1.2-2.6,0.8-4.1
		C220.8,227.9,220.6,227.8,220.5,227.6z"/>
	<path class="st1" d="M295.4,239.9c1.6-0.3,2-1.1,1.9-2.2c-0.5-0.3-0.8-0.9-1.7-0.9h-0.3c-0.3,0.3-0.7,0.6-1.3,1
		C295.5,238.2,294.4,239.4,295.4,239.9z"/>
	<path class="st1" d="M292.2,217.2c-0.8-0.1-1.5-0.1-2.2-0.1c-2.2,0-4.2,0.4-6.3,1.4c0,1.4,0.3,2.7-0.9,3.7c0.8,0.7,1.4,1.2,2.1,1.7
		h2.4c0.9,0,1.8-0.1,2.7-0.6c0.2,0.5,0.2,0.8,0.4,1.3c0.9-0.7,1.7-1.5,2.2-1.5C295.9,220.6,292.7,219,292.2,217.2z M285.4,219.2
		c0.1-0.1,0.3-0.2,0.4-0.2s0.2,0.1,0.4,0.2c-0.1,0.1-0.3,0.2-0.4,0.2S285.5,219.3,285.4,219.2z M286.6,220.7c-0.1,0-0.3-0.1-0.4-0.2
		c0.1-0.1,0.3-0.2,0.4-0.2s0.2,0,0.4,0.2C286.9,220.6,286.7,220.7,286.6,220.7z"/>
	<path class="st1" d="M263.7,217.4C263.7,217.4,263.7,217.3,263.7,217.4C263.7,217.3,263.7,217.4,263.7,217.4L263.7,217.4z"/>
	<path class="st1" d="M275.8,177.4L275.8,177.4z"/>
	<path class="st1" d="M275.8,177.4L275.8,177.4c0-0.1,0-0.2,0-0.2S275.8,177.3,275.8,177.4L275.8,177.4z"/>
	<path class="st1" d="M49.4,217.4C49.4,217.4,49.4,217.3,49.4,217.4C49.4,217.3,49.4,217.4,49.4,217.4L49.4,217.4z"/>
	<polygon class="st1" points="119,198.3 119,198.3 119,198.3 119,198.3 119,198.3 	"/>
	<path class="st1" d="M61.5,177.4L61.5,177.4z"/>
	<path class="st1" d="M61.5,177.4L61.5,177.4c0-0.1,0-0.2,0-0.2S61.5,177.3,61.5,177.4L61.5,177.4z"/>
	<polygon class="st1" points="161.3,257 161.3,257 161.3,257 161.3,257 	"/>
</g>
</svg>
